<?xml version="1.0" encoding="UTF-8" standalone="no"?>
<svg width="10px" height="10px" viewBox="0 0 10 10" version="1.1" xmlns="http://www.w3.org/2000/svg" xmlns:xlink="http://www.w3.org/1999/xlink">
    <defs></defs>
    <g id="Symbols" stroke="none" stroke-width="1" fill="none" fill-rule="evenodd" stroke-linecap="round" stroke-linejoin="round">
        <g id="viz_type_5" transform="translate(-187.000000, -78.000000)" stroke="#71609B">
            <g id="Group-2" transform="translate(52.000000, 77.000000)">
                <g id="Page-1-Copy-4" transform="translate(134.000000, 0.000000)">
                    <g id="icon_person" transform="translate(2.000000, 1.500000)">
                        <path d="M7.9999994,8.99999937 L7.9999994,7.99999943 C7.9999994,6.66666646 7.33333244,5.99999955 5.99999952,5.99999955 L1.99999976,5.99999955 C1.44771483,6 0.976310311,6.19526194 0.585786185,6.58578631 C0.195262058,6.97631019 -1.2000055e-07,7.44771426 -1.2000055e-07,7.99999943 L-1.2000055e-07,8.99999937" id="Stroke-2"></path>
                        <path d="M5.99999952,1.99999979 C5.99999952,3.3333332 5.33333301,3.99999967 3.99999964,3.99999967 C2.66666623,3.99999967 1.99999976,3.3333332 1.99999976,1.99999979 C1.99999976,0.666666375 2.66666623,-8.99999577e-08 3.99999964,-8.99999577e-08 C5.33333301,-8.99999577e-08 5.99999952,0.666666375 5.99999952,1.99999979 Z" id="Stroke-3"></path>
                    </g>
                </g>
            </g>
        </g>
    </g>
</svg>