<?xml version="1.0" encoding="UTF-8" standalone="no"?>
<svg width="100px" height="84px" viewBox="0 0 100 84" version="1.1" xmlns="http://www.w3.org/2000/svg" xmlns:xlink="http://www.w3.org/1999/xlink">
    <!-- Generator: Sketch 43.1 (39012) - http://www.bohemiancoding.com/sketch -->
    <title>Shape</title>
    <desc>Created with Sketch.</desc>
    <defs></defs>
    <g id="Page-1" stroke="none" stroke-width="1" fill="none" fill-rule="evenodd">
        <g id="noun_72" fill-rule="nonzero" fill="#000000">
            <path d="M90.925,28.696 L82.728,7.529 C81.195,3.477 77.845,0.029 71.505,0 L59.945,0 L40.188,0 L28.427,0 C22.116,0.029 18.766,3.477 17.205,7.529 L9.006,28.696 C5.751,29.116 -0.01,32.941 3.55271537e-15,40.187 L3.55271537e-15,67.138 L7.999,67.138 L7.999,75.741 C7.979,86.347 22.988,86.221 22.984,75.741 L22.984,67.138 L50,67.138 L76.948,67.138 L76.948,75.741 C76.981,86.221 91.99,86.347 92,75.741 L92,67.138 L100,67.138 L100,40.187 C99.975,32.941 94.21,29.116 90.925,28.696 Z M15.727,50.874 C11.893,50.885 8.789,47.687 8.805,43.754 C8.789,39.794 11.893,36.593 15.727,36.626 C19.549,36.593 22.653,39.794 22.648,43.754 C22.653,47.687 19.548,50.884 15.727,50.874 Z M50,28.497 L49.933,28.497 L17.541,28.497 L23.723,11.829 C24.469,9.463 25.627,7.77 28.362,7.729 L49.933,7.729 L50,7.729 L71.64,7.729 C74.333,7.77 75.494,9.462 76.276,11.829 L82.459,28.497 L50,28.497 Z M84.274,50.874 C80.413,50.885 77.307,47.687 77.286,43.754 C77.307,39.794 80.413,36.593 84.274,36.626 C88.069,36.593 91.172,39.794 91.196,43.754 C91.172,47.687 88.069,50.884 84.274,50.874 Z" id="Shape"></path>
        </g>
    </g>
</svg>