<?xml version="1.0" encoding="UTF-8" standalone="no"?>
<svg width="96px" height="80px" viewBox="0 0 96 80" version="1.1" xmlns="http://www.w3.org/2000/svg" xmlns:xlink="http://www.w3.org/1999/xlink">
    <!-- Generator: Sketch 43.1 (39012) - http://www.bohemiancoding.com/sketch -->
    <title>Shape</title>
    <desc>Created with Sketch.</desc>
    <defs></defs>
    <g id="Page-1" stroke="none" stroke-width="1" fill="none" fill-rule="evenodd">
        <g id="noun_1232590_cc" fill-rule="nonzero" fill="#000000">
            <path d="M61.21,5.6 C53.9947607,-1.1593717 42.7880459,-1.21169878 35.51,5.48 L1.69,36.25 C0.612420905,37.2059491 0.13207036,38.6674657 0.43242757,40.0762953 C0.73278478,41.4851249 1.76745347,42.6236451 3.14122187,43.056976 C4.51499026,43.4903069 6.01565191,43.1515118 7.07,42.17 L10.44,39.11 L10.44,65.47 C10.44,73.2019865 16.7080135,79.47 24.44,79.47 L71.56,79.47 C79.2919865,79.47 85.56,73.2019865 85.56,65.47 L85.56,39.08 L88.87,42.15 C90.4909557,43.6522145 93.0227855,43.5559557 94.525,41.935 C96.0272145,40.3140443 95.9309557,37.7822145 94.31,36.28 L61.21,5.6 Z M53.05,71.47 L43,71.47 L43,53.61 C43,50.820962 45.260962,48.56 48.05,48.56 C50.839038,48.56 53.1,50.820962 53.1,53.61 L53.05,71.47 Z M77.56,65.47 C77.56,68.7837085 74.8737085,71.47 71.56,71.47 L61.05,71.47 L61.05,53.61 C61.05,46.402684 55.207316,40.56 48,40.56 C40.792684,40.56 34.95,46.402684 34.95,53.61 L34.95,71.47 L24.45,71.47 C21.1362915,71.47 18.45,68.7837085 18.45,65.47 L18.45,31.82 L40.89,11.4 C45.1045877,7.52714644 51.5920362,7.55766535 55.77,11.47 L77.56,31.67 L77.56,65.47 Z" id="Shape"></path>
        </g>
    </g>
</svg>