<?xml version="1.0" encoding="UTF-8" standalone="no"?>
<svg width="44px" height="84px" viewBox="0 0 44 84" version="1.1" xmlns="http://www.w3.org/2000/svg" xmlns:xlink="http://www.w3.org/1999/xlink">
    <!-- Generator: Sketch 43.1 (39012) - http://www.bohemiancoding.com/sketch -->
    <title>Shape</title>
    <desc>Created with Sketch.</desc>
    <defs></defs>
    <g id="Page-1" stroke="none" stroke-width="1" fill="none" fill-rule="evenodd">
        <g id="noun_1143207_cc" fill-rule="nonzero" fill="#000000">
            <path d="M42.3,1.8 C41.4,1 40.2,0.6 39,0.7 C36.9,0.9 35.2,2.7 35.1,4.9 L33.6,4.9 C33.5,4.5 33.3,4.1 33,3.7 C32.5,3.2 31.9,3 31.2,3 L26.2,3 C26.1,2.3 25.5,1.7 24.7,1.7 L19.9,1.7 C19.1,1.7 18.5,2.3 18.4,3 L16.7,3 L14.2,5.3 C8.4,7.1 3.6,11 0.6,16.3 C0.2,16.9 0.2,17.6 0.4,18.3 C0.6,19 1,19.5 1.7,19.9 L3.2,20.7 C3.6,20.9 4,21 4.4,21 C5,21 5.7,20.8 6.2,20.3 C6.8,19.7 7.3,19.2 7.8,18.7 C10.1,16.4 11.1,15.4 14.9,15.4 L17.6,15.4 L17.6,34.6 L16.9,39 C14.7,52.5 14.2,66.2 15.4,79.8 L15.7,83.3 L26,83.3 C27.6,83.3 29.1,82.6 30.1,81.4 C31.1,80.3 31.5,78.8 31.2,77.3 C30.1,70.4 30.1,63.4 31.4,56.5 L31.4,56.3 C31.7,49.4 30.6,42.6 28,36.1 L27.4,34.5 L27.4,15.4 L30.9,15.4 C31.6,15.4 32.2,15.1 32.7,14.6 C33,14.3 33.2,13.9 33.3,13.5 L34.8,13.5 C34.9,15.7 36.6,17.5 38.7,17.7 C39.9,17.8 41.1,17.4 42,16.6 C42.9,15.8 43.4,14.6 43.4,13.4 L43.4,5 C43.7,3.8 43.2,2.6 42.3,1.8 Z M27.9,79.5 C27.5,80 26.8,80.3 26.1,80.3 L18.5,80.3 L18.4,79.5 C17.3,66.2 17.7,52.7 19.9,39.4 L20.4,36.2 L25.1,36.2 L25.5,37.1 C26.5,39.7 27.3,42.4 27.8,45.1 L24,47.2 C23.3,47.6 23,48.5 23.4,49.2 C23.7,49.7 24.2,50 24.7,50 C24.9,50 25.2,49.9 25.4,49.8 L28.3,48.2 C28.4,49.4 28.5,50.5 28.6,51.7 L24,54.2 C23.3,54.6 23,55.5 23.4,56.2 C23.7,56.7 24.2,57 24.7,57 C24.9,57 25.2,56.9 25.4,56.8 L28.6,55.1 L28.6,55.9 C28.4,56.9 28.3,58 28.1,59 L23.9,61.2 C23.2,61.6 22.9,62.5 23.3,63.2 C23.6,63.7 24.1,64 24.6,64 C24.8,64 25.1,63.9 25.3,63.8 L27.7,62.5 C27.3,67.5 27.5,72.6 28.3,77.6 C28.5,78.4 28.3,79 27.9,79.5 Z M24.6,33.3 L20.6,33.3 L20.6,15.4 L24.6,15.4 L24.6,33.3 Z M40.7,13.4 C40.7,13.8 40.5,14.1 40.3,14.4 C40,14.7 39.7,14.8 39.3,14.7 C38.6,14.7 38,14 38,13.3 L38,13 C38,11.7 36.9,10.6 35.6,10.6 L33.1,10.6 C32.4,10.6 31.8,10.9 31.3,11.3 C31,11.6 30.8,12 30.7,12.5 L17.3,12.5 L14.9,12.5 C9.9,12.5 8.2,14.2 5.7,16.6 C5.3,17 4.8,17.4 4.4,17.9 L3.5,17.4 C6.2,12.9 10.4,9.6 15.4,8.1 L15.7,8 L17.9,6 L30.7,6 C30.8,6.4 31,6.8 31.3,7.1 C31.8,7.6 32.4,7.9 33.1,7.9 L35.6,7.9 C36.9,7.9 38,6.8 38,5.5 L38,5.2 C38,4.5 38.5,3.8 39.2,3.8 C39.6,3.8 40,3.9 40.2,4.1 C40.5,4.4 40.6,4.7 40.6,5.1 L40.6,13.4 C40.6,13.4 40.7,13.4 40.7,13.4 Z" id="Shape"></path>
        </g>
    </g>
</svg>